<svg xmlns="http://www.w3.org/2000/svg" xmlns:xlink="http://www.w3.org/1999/xlink" version="1.1" x="0px" y="0px" viewBox="0 0 100 125" style="enable-background:new 0 0 100 100;" xml:space="preserve">
  <g>
    <path d="M26.8,84.2c0.4,0.4,0.9,0.6,1.5,0.6c0.4,0,0.8-0.1,1.2-0.4L73,51.6c0.5-0.4,0.8-1,0.8-1.6s-0.3-1.2-0.8-1.6L29.5,15.5 c-0.8-0.6-2-0.5-2.7,0.2c-0.7,0.8-0.7,1.9,0,2.7L54.3,50L26.7,81.6C26.1,82.3,26.1,83.5,26.8,84.2z M58.5,51.3 c0.7-0.8,0.7-1.9,0-2.6l-16-18.3L68.4,50L42.5,69.6L58.5,51.3z" fill="white"/>
  </g>
</svg>
